<svg xmlns="http://www.w3.org/2000/svg" viewBox="0 0 128 128" role="img" aria-label="DNSPilot icon">
  <rect width="128" height="128" rx="28" fill="#102a33"/>
  <path d="M64 19c20.6 8.1 34 19.5 34 37.1 0 24.2-16.4 42.1-34 53-17.6-10.9-34-28.8-34-53C30 38.5 43.4 27.1 64 19Z" fill="#163f4a"/>
  <path d="M64 28c16.2 6.8 25.3 15.8 25.3 28.4 0 17.6-10.8 32-25.3 42.1C49.5 88.4 38.7 74 38.7 56.4 38.7 43.8 47.8 34.8 64 28Z" fill="#eef6f4"/>
  <circle cx="48" cy="54" r="7" fill="#176d52"/>
  <circle cx="80" cy="54" r="7" fill="#176d52"/>
  <circle cx="64" cy="78" r="7" fill="#176d52"/>
  <path d="M54.7 58.9 61 72.2M73.3 58.9 67 72.2M55.3 54h17.4" fill="none" stroke="#176d52" stroke-width="5" stroke-linecap="round"/>
  <path d="M64 43.5 70.2 67 64 78.5 57.8 67 64 43.5Z" fill="#f6c85f"/>
  <circle cx="64" cy="67" r="5" fill="#102a33"/>
</svg>
