<svg xmlns="http://www.w3.org/2000/svg" viewBox="0 0 128 128" role="img" aria-label="DNSPilot icon">
  <path d="M64 11c18.2 13.9 38.1 18.8 49.1 20.3v34.2c0 27.8-19.6 46.4-49.1 55.5-29.5-9.1-49.1-27.7-49.1-55.5V31.3C25.9 29.8 45.8 24.9 64 11Z" fill="#f4f3eb"/>
  <path d="M64 17.8c15.6 11.2 32.1 16.2 43 18.3v29.4c0 24-16.5 40.3-43 48.8-26.5-8.5-43-24.8-43-48.8V36.1c10.9-2.1 27.4-7.1 43-18.3Z" fill="#f8f7ef"/>
  <path d="M42.2 48.5h43.6M45.2 55.8l16.4 35.4M82.8 55.8 66.4 91.2" fill="none" stroke="#0b5961" stroke-width="7" stroke-linecap="round" stroke-linejoin="round"/>
  <circle cx="40.6" cy="48.5" r="9.8" fill="#083f46"/>
  <circle cx="40.6" cy="48.5" r="5.3" fill="#54c6b5"/>
  <circle cx="87.4" cy="48.5" r="9.8" fill="#083f46"/>
  <circle cx="87.4" cy="48.5" r="5.3" fill="#54c6b5"/>
  <circle cx="64" cy="96.2" r="10.5" fill="#083f46"/>
  <circle cx="64" cy="96.2" r="5.8" fill="#54c6b5"/>
  <path d="M64 53.4 73.8 86 64 77.7 54.2 86 64 53.4Z" fill="#f2b316"/>
  <path d="M64 77.7 54.2 86 60.4 68.6 64 77.7Z" fill="#0b5961"/>
</svg>
